<svg width="154" height="46" viewBox="0 0 154 46" fill="none" xmlns="http://www.w3.org/2000/svg">
<path fill-rule="evenodd" clip-rule="evenodd" d="M34.4795 43.3417H35.7469V34.5059H34.4795V43.3417ZM116.437 38.6302H114.222V41.1891C114.222 41.9803 114.632 42.2872 115.139 42.2872C115.531 42.2872 115.96 42.1094 116.304 41.8886L116.805 42.913C116.34 43.232 115.755 43.4962 115.031 43.4962C113.721 43.4962 112.955 42.7782 112.955 41.2136V38.6302H111.802V37.4643H112.955V35.6851H114.222V37.4643H116.437V38.6302ZM110.918 43.3417V39.6478C110.918 38.2734 109.946 37.3101 108.57 37.3101C107.979 37.3101 107.261 37.4882 106.796 38.1811V37.4634H105.541V43.3417H106.808V40.0836C106.808 39.0772 107.49 38.5311 108.305 38.5311C109.15 38.5311 109.651 39.0834 109.651 40.0712V43.3417H110.918ZM102.931 39.9015H99.9314C100.064 39.0425 100.565 38.4534 101.464 38.4534C102.267 38.4534 102.792 38.9871 102.931 39.9015ZM104.198 40.8774C104.21 40.7302 104.223 40.5642 104.223 40.3988C104.216 38.5638 103.106 37.3124 101.489 37.3124C99.7867 37.3124 98.6095 38.5638 98.6095 40.4047C98.6095 42.27 99.8348 43.4973 101.567 43.4973C102.442 43.4973 103.239 43.2826 103.945 42.669L103.317 41.7546C102.84 42.1412 102.225 42.3744 101.645 42.3744C100.825 42.3744 100.094 41.9327 99.9253 40.8774H104.198ZM1.36358 42.0279V36.0635H3.35514C5.34061 36.0635 6.31218 37.297 6.31218 39.0456C6.31218 40.7759 5.34061 42.0279 3.35514 42.0279H1.36358ZM7.74303 39.0469C7.74303 36.4576 5.99857 34.7518 3.35534 34.7518H-0.000183105V43.3423H3.35534C5.99857 43.3423 7.74303 41.6365 7.74303 39.0469ZM10.428 43.3425H9.16062V37.464H10.428V43.3425ZM9.78862 36.3287C10.2892 36.3287 10.6816 35.9421 10.6816 35.4329C10.6816 34.9236 10.2892 34.525 9.78862 34.525C9.28776 34.525 8.90725 34.9236 8.90725 35.4329C8.90725 35.9421 9.28776 36.3287 9.78862 36.3287ZM14.6977 42.1648C13.6295 42.1648 12.9897 41.3303 12.9897 40.3422C12.9897 39.3482 13.6295 38.5196 14.6977 38.5196C15.7174 38.5196 16.4053 39.3114 16.4053 40.3422C16.4053 41.3731 15.7174 42.1648 14.6977 42.1648ZM16.2966 37.4631V38.1691C15.8622 37.6106 15.2105 37.3101 14.3715 37.3101C13.0498 37.3101 11.692 38.4392 11.692 40.3411C11.692 42.2433 13.0498 43.3721 14.3715 43.3721C15.2105 43.3721 15.8622 43.0778 16.2966 42.5131V42.9858C16.2966 44.078 15.6449 44.7406 14.4619 44.7406C13.756 44.7406 13.0861 44.5076 12.5005 44.1452L12.042 45.2315C12.6514 45.6733 13.5991 45.9127 14.4619 45.9127C16.3932 45.9127 17.564 44.7774 17.564 42.9304V37.4631H16.2966ZM20.5119 43.3425H19.2445V37.464H20.5119V43.3425ZM19.8723 36.3287C20.3732 36.3287 20.7656 35.9421 20.7656 35.4329C20.7656 34.9236 20.3732 34.525 19.8723 34.525C19.3715 34.525 18.9912 34.9236 18.9912 35.4329C18.9912 35.9421 19.3715 36.3287 19.8723 36.3287ZM23.9007 38.6302H26.1156V37.4643H23.9007V35.6851H22.6333V37.4643H21.4808V38.6302H22.6333V41.2136C22.6333 42.7782 23.3998 43.4962 24.7093 43.4962C25.4334 43.4962 26.019 43.232 26.4839 42.913L25.9827 41.8886C25.6388 42.1094 25.2101 42.2872 24.818 42.2872C24.3111 42.2872 23.9007 41.9803 23.9007 41.1891V38.6302ZM28.1344 40.4036C28.1344 41.4344 28.7921 42.2875 29.8785 42.2875C30.9226 42.2875 31.6227 41.4775 31.6227 40.4036C31.6227 39.3296 30.9226 38.5196 29.8785 38.5196C28.7921 38.5196 28.1344 39.3727 28.1344 40.4036ZM32.8075 43.3417H31.5462V42.6358C31.148 43.1574 30.5506 43.495 29.7298 43.495C28.1124 43.495 26.8389 42.2006 26.8389 40.4024C26.8389 38.6043 28.1124 37.3101 29.7298 37.3101C30.5506 37.3101 31.148 37.6536 31.5462 38.175V37.4631H32.8075V43.3417ZM43.7242 42.0287V36.0644H45.7158C47.7012 36.0644 48.6728 37.2978 48.6728 39.0464C48.6728 40.7767 47.7012 42.0287 45.7158 42.0287H43.7242ZM50.1031 39.0471C50.1031 36.4578 48.3589 34.752 45.7157 34.752H42.3602V43.3425H45.7157C48.3589 43.3425 50.1031 41.6366 50.1031 39.0471ZM55.4854 39.8992H52.486C52.6189 39.0403 53.1197 38.4511 54.0191 38.4511C54.8216 38.4511 55.3465 38.9848 55.4854 39.8992ZM56.7547 40.8751C56.7666 40.728 56.7788 40.562 56.7788 40.3965C56.7727 38.5615 55.6625 37.3101 54.0451 37.3101C52.343 37.3101 51.1663 38.5615 51.1663 40.4024C51.1663 42.2678 52.3914 43.495 54.1234 43.495C54.9987 43.495 55.795 43.2804 56.5012 42.6667L55.8736 41.7524C55.3969 42.1389 54.7814 42.3722 54.202 42.3722C53.3812 42.3722 52.651 41.9305 52.4819 40.8751H56.7547ZM59.403 43.3414H60.8998L63.2112 37.4628H61.8716L60.1634 42.0098L58.4555 37.4628H57.0797L59.403 43.3414ZM64.826 39.8992H67.8254C67.6868 38.9848 67.1616 38.4511 66.3591 38.4511C65.4597 38.4511 64.9589 39.0403 64.826 39.8992ZM69.1169 40.3965C69.1169 40.562 69.1047 40.728 69.0928 40.8751H64.8199C64.989 41.9305 65.7193 42.3722 66.54 42.3722C67.1195 42.3722 67.7349 42.1389 68.2117 41.7524L68.8393 42.6667C68.1331 43.2804 67.3364 43.495 66.4617 43.495C64.7295 43.495 63.5041 42.2678 63.5041 40.4024C63.5041 38.5615 64.681 37.3101 66.3831 37.3101C68.0003 37.3101 69.1108 38.5615 69.1169 40.3965ZM70.4507 43.3417H71.7181V34.5059H70.4507V43.3417ZM76.1235 42.2875C75.0913 42.2875 74.3129 41.5143 74.3129 40.4036C74.3129 39.2928 75.0913 38.5196 76.1235 38.5196C77.1554 38.5196 77.9399 39.2928 77.9399 40.4036C77.9399 41.5143 77.1554 42.2875 76.1235 42.2875ZM76.1212 43.495C77.9074 43.495 79.2351 42.1637 79.2351 40.4024C79.2351 38.6412 77.9074 37.3101 76.1212 37.3101C74.3346 37.3101 73.013 38.6412 73.013 40.4024C73.013 42.1637 74.3346 43.495 76.1212 43.495ZM83.473 42.2875C82.4289 42.2875 81.7288 41.4775 81.7288 40.4036C81.7288 39.3296 82.4289 38.5196 83.473 38.5196C84.5594 38.5196 85.2171 39.3727 85.2171 40.4036C85.2171 41.4344 84.5594 42.2875 83.473 42.2875ZM83.622 43.495C85.2394 43.495 86.5129 42.2006 86.5129 40.4024C86.5129 38.6043 85.2394 37.3101 83.622 37.3101C82.8012 37.3101 82.2099 37.6474 81.8117 38.1629V37.4631H80.5501V45.7959H81.8117V42.6423C82.2099 43.1574 82.8012 43.495 83.622 43.495ZM97.3212 43.3417V39.6478C97.3212 38.2735 96.3493 37.3101 94.9735 37.3101C94.2554 37.3101 93.3621 37.5186 92.8613 38.3596C92.4628 37.7091 91.7447 37.3101 90.8633 37.3101C90.272 37.3101 89.5542 37.4882 89.0893 38.1812V37.4634H87.8338V43.3417H89.1015V40.0837C89.1015 39.0773 89.7833 38.5312 90.598 38.5312C91.4428 38.5312 91.9439 39.0835 91.9439 40.0713V43.3417H93.211V40.0837C93.211 39.0773 93.8931 38.5312 94.7078 38.5312C95.5526 38.5312 96.0538 39.0835 96.0538 40.0713V43.3417H97.3212Z" fill="#AEB2C5"/>
<path fill-rule="evenodd" clip-rule="evenodd" d="M6.83398 6.94992H9.42356C13.1251 7.00712 16.0914 10.2015 15.8553 14.0286C15.6439 17.4571 12.7712 20.0708 9.42356 20.2463V20.2536H6.83398V20.2563H20.9466C22.2279 18.0032 22.881 15.3493 22.6594 12.5153C22.5022 10.5046 21.9106 8.61771 20.9843 6.94727H6.83398V6.94992Z" fill="#83D432"/>
<path fill-rule="evenodd" clip-rule="evenodd" d="M35.9753 12.5155C35.4289 5.52177 29.6558 0 22.6391 0H9.5769V0.00737179C14.4692 0.101141 18.7255 2.87795 20.9828 6.94747H22.6391C26.3873 6.94747 29.4096 10.1669 29.1714 14.0288C28.9522 17.5791 25.8794 20.2565 22.3807 20.2565H20.9451C18.6832 24.2343 14.4571 26.9584 9.5769 27.1863V27.204H22.2293C30.1848 27.204 36.6052 20.5788 35.9753 12.5155Z" fill="#83D432"/>
<path fill-rule="evenodd" clip-rule="evenodd" d="M20.946 20.2568H6.83342V20.2542H6.80848V6.95042H6.83342V6.94747H20.9834C18.7265 2.87824 14.4699 0.101436 9.57758 0.00766667V0H6.56197H5.51616H0.221574C0.188802 0 0.15806 0.00737179 0.129348 0.0191667C0.0533635 0.0530769 0 0.129744 0 0.219679V26.9846C0 27.0745 0.0533635 27.1515 0.129348 27.1854C0.15806 27.1969 0.188802 27.2043 0.221574 27.2043H5.51616H6.56197H9.57758V27.1866C14.4577 26.9587 18.6842 24.2343 20.946 20.2568Z" fill="#04C200"/>
<path fill-rule="evenodd" clip-rule="evenodd" d="M66.3462 27.2624H70.3682V0H66.3462V27.2624ZM132.456 16.3383C132.015 13.4371 130.349 11.7428 127.802 11.7428C124.948 11.7428 123.358 13.6125 122.937 16.3383H132.456ZM47.5068 14.2622V4.14871H53.4633C56.9678 4.14871 58.5766 6.40094 58.5766 9.20547C58.5766 12.0094 56.9678 14.2622 53.4633 14.2622H47.5068ZM47.5064 27.2623V18.4093H53.5777C59.7641 18.4093 63.077 14.3062 63.077 9.2046C63.077 4.10273 59.7641 0.000176923 53.5777 0.000176923H43.1776V27.2623H47.5064ZM128.378 24.185C130.216 24.185 132.17 23.4452 133.683 22.2185L135.266 25.4577C133.128 27.1464 130.738 27.7491 128.129 27.7491C122.632 27.7491 118.744 23.8542 118.744 17.934C118.744 12.0926 122.479 8.11981 127.88 8.11981C133.013 8.11981 136.537 12.0926 136.556 17.9149C136.556 18.4406 136.518 18.9664 136.479 19.4337H122.919C123.456 22.7832 125.773 24.185 128.378 24.185ZM145.788 12.3067H152.817V8.60691H145.788V2.95923H141.766V8.60691H138.108V12.3067H141.766V20.5047C141.766 25.4703 144.198 27.7491 148.355 27.7491C150.653 27.7491 152.51 26.9117 153.985 25.8988L152.396 22.6466C151.304 23.3475 149.945 23.9125 148.7 23.9125C147.091 23.9125 145.788 22.9389 145.788 20.4268V12.3067ZM83.8205 23.9132C80.3728 23.9132 78.2852 21.2069 78.2852 17.935C78.2852 14.6637 80.3728 11.9571 83.8205 11.9571C87.134 11.9571 89.3552 14.5275 89.3552 17.935C89.3552 21.3428 87.134 23.9132 83.8205 23.9132ZM89.1041 27.2629H93.1067V8.60759H89.1041V10.8663C87.8399 9.21119 85.9438 8.12075 83.3391 8.12075C78.2061 8.12075 74.1653 12.2295 74.1653 17.935C74.1653 23.641 78.2061 27.7498 83.3391 27.7498C85.9438 27.7498 87.8399 26.6782 89.1041 25.0231V27.2629ZM115.093 27.2618V15.5389C115.093 11.1772 112.009 8.11963 107.643 8.11963C105.766 8.11963 103.486 8.6846 102.012 10.8846V8.60676H98.0279V27.2618H102.05V16.9216C102.05 13.7281 104.214 11.9951 106.8 11.9951C109.481 11.9951 111.071 13.7476 111.071 16.8826V27.2618H115.093Z" fill="white"/>
</svg>
